<svg width="38" height="42" viewBox="0 0 38 42" fill="none" xmlns="http://www.w3.org/2000/svg">
<path d="M27.9795 41.465C24.7302 41.465 21.9391 40.8455 19.6063 39.6064C17.2734 38.3674 15.4822 36.619 14.2324 34.3612C13.0105 32.1033 12.3995 29.4601 12.3995 26.4313C12.3995 23.4025 13.0105 20.773 14.2324 18.5427C15.4822 16.2849 17.2734 14.5365 19.6063 13.2975C21.9391 12.0584 24.7302 11.4389 27.9795 11.4389C29.9235 11.4389 31.7981 11.7418 33.6032 12.3475C35.0953 12.8255 36.3502 13.4351 37.3679 14.1763C37.7458 14.4516 37.8661 14.951 37.6991 15.3876L36.2026 19.299C35.9418 19.9809 35.1063 20.228 34.4788 19.8547C33.6593 19.3672 32.8398 18.9849 32.0202 18.7079C30.7983 18.2674 29.5486 18.0471 28.2711 18.0471C25.6883 18.0471 23.7443 18.7768 22.439 20.2361C21.1337 21.6679 20.4811 23.7329 20.4811 26.4313C20.4811 29.1572 21.1337 31.2498 22.439 32.7091C23.7443 34.1409 25.6883 34.8568 28.2711 34.8568C29.5486 34.8568 30.7983 34.6503 32.0202 34.2373C32.8405 33.9415 33.6607 33.5466 34.4809 33.0524C35.1062 32.6756 35.9418 32.923 36.2026 33.6049L37.6991 37.5163C37.8661 37.9529 37.7457 38.4521 37.3685 38.7283C36.3507 39.4738 35.0956 40.0969 33.6032 40.5977C31.7981 41.1759 29.9235 41.465 27.9795 41.465Z" fill="white"/>
<path d="M7.9512 1.43025C7.9512 0.81607 8.4491 0.318176 9.06328 0.318176H15.7357C16.3499 0.318176 16.8478 0.81607 16.8478 1.43025V8.10272C16.8478 8.7169 16.3499 9.21479 15.7357 9.21479H9.06328C8.4491 9.21479 7.9512 8.7169 7.9512 8.10272V1.43025Z" fill="white"/>
<path d="M0.166656 9.2148C0.166656 8.60062 0.66455 8.10272 1.27873 8.10272H7.9512C8.56538 8.10272 9.06327 8.60062 9.06327 9.2148V15.8873C9.06327 16.5014 8.56538 16.9993 7.9512 16.9993H1.27873C0.66455 16.9993 0.166656 16.5014 0.166656 15.8873V9.2148Z" fill="white"/>
</svg>
