<svg width="325" height="136" viewBox="0 0 325 136" fill="none" xmlns="http://www.w3.org/2000/svg">
<path d="M325 61.2275C325 83.0703 325 93.9917 320.01 102.306C317.833 105.933 315.016 109.136 311.697 111.758C304.087 117.77 293.255 119.164 271.591 121.954L193.149 132.054C177.845 134.024 170.194 135.009 162.5 135.009C154.806 135.009 147.155 134.024 131.851 132.054L53.4085 121.954C31.7446 119.164 20.9126 117.77 13.3034 111.758C9.98395 109.136 7.16739 105.933 4.99036 102.306C3.67248e-06 93.9916 4.62726e-06 83.0702 6.53682e-06 61.2275C8.68363e-06 36.6708 9.75704e-06 24.3925 5.88874 15.5697C8.44697 11.7369 11.7369 8.44694 15.5698 5.88871C24.3925 -2.62799e-05 36.6708 -2.52065e-05 61.2275 -2.30597e-05L263.773 -5.35268e-06C288.329 -3.20587e-06 300.607 -2.13246e-06 309.43 5.88873C313.263 8.44697 316.553 11.7369 319.111 15.5698C325 24.3925 325 36.6708 325 61.2275Z" fill="white"/>
</svg>
